<?xml version="1.0" encoding="UTF-8"?><svg id="Layer_2" xmlns="http://www.w3.org/2000/svg" viewBox="0 0 203.88 227.85"><defs><style>.cls-1{fill:#c5db60;fill-rule:evenodd;}</style></defs><g id="Layer_1-2"><path class="cls-1" d="M48.24,37.29C75.61,3.48,107.16-14.86,130.84,15.16c28.52,1.5,39.96,46.82,17.21,65.91l-.13,1.13c.85-.27,1.74-.44,2.63-.5,1.6-.18,3.22,.13,4.65,.87,1.56,.82,2.73,2.24,3.25,3.93,.61,2.22,.56,4.57-.15,6.77-1.06,3.3-2.37,6.99-3.62,10.24-.37,1.38-1.14,2.62-2.21,3.56-1.39,1-3.12,1.42-4.82,1.17l-.98-.11c-.24,11.26-5.73,16.43-12.98,23.2l-.33,.32c6.69,16.69,19.64,20.94,32.51,23.09,43.82,7.42,37.72,30.73,37.72,53.18h-57.56c-15.42,21.46-45.31,26.36-66.77,10.95-2.1-1.51-4.08-3.19-5.9-5.01l-.41-.45c-1.67-1.73-3.21-3.59-4.6-5.56H.03c0-28.32-2.67-46.53,44.67-51.65,14.5-1.56,28.98-5.43,34.99-25.41-6.56-5.69-11.94-10.87-12.98-22.62h-.61c-1.46,0-2.89-.38-4.15-1.09-2.09-1.31-3.69-3.26-4.56-5.56-1.09-2.65-1.72-5.46-1.85-8.33h0v-4.19c0-1.61,.11-2.78,.22-3.56,.02-.23,.08-.46,.19-.67,1.46-4.12,3.71-5.45,6.71-5.36l-1.97-1.3c-1.08-13.31,2.06-36.42-12.41-40.8l-.04-.02Zm56.08,122.17c0-.97,.18-1.94,.56-2.84,.37-.9,.92-1.72,1.61-2.39,.69-.68,1.49-1.22,2.37-1.61,1.78-.72,3.78-.72,5.56,0,.87,.39,1.66,.94,2.34,1.61,.68,.69,1.21,1.5,1.58,2.39,.36,.9,.53,1.87,.5,2.84,.01,.96-.16,1.92-.52,2.82-.37,.89-.92,1.7-1.59,2.39-.67,.69-1.46,1.24-2.34,1.63-.87,.37-1.81,.56-2.76,.56-1.95,.02-3.82-.77-5.17-2.17-.68-.68-1.23-1.5-1.59-2.39-.36-.9-.55-1.87-.54-2.84Zm4.14,38.18l-.26,1.02c-.13,.85,0,1.85,1.04,1.85,.49-.05,.95-.25,1.32-.57,.68-.55,1.3-1.17,1.85-1.85,.83-.95,1.6-1.95,2.32-2.99,.82-1.15,1.65-2.45,2.52-3.91,.1-.15,.29-.2,.45-.11l2.99,2.21c.11,.13,.11,.32,0,.45-1.23,2.16-2.61,4.24-4.14,6.21-1.26,1.62-2.7,3.11-4.28,4.41h0c-3.95,3.21-11.26,5.38-15.56,1.54-3.5-3.15-2.13-8.27-.95-12.15l3.88-11.13c.65-2.3,2.23-6.55-1.85-6.55h-4.01c-.18,0-.32-.15-.33-.33l1.17-4.08c.03-.14,.17-.25,.32-.24l21.38-.67c.18-.01,.34,.13,.35,.31h0v.11l-8.14,26.5-.06-.04Zm-1.28-58.02c22.31,0,40.39,18.08,40.39,40.39s-18.08,40.39-40.39,40.39-40.38-18.07-40.39-40.37c0-22.3,18.07-40.37,40.37-40.37h.02v-.04Z"/></g></svg>