<?xml version="1.0" encoding="UTF-8"?><svg id="Layer_2" xmlns="http://www.w3.org/2000/svg" viewBox="0 0 408.83 311.46"><defs><style>.cls-1{fill:#c5db60;}</style></defs><g id="Layer_1-2"><path class="cls-1" d="M0,279.51V32c.17-.36,.45-.71,.5-1.08C2.98,13.13,18.42-.33,38.18,0c15.83,.27,31.67,.05,47.51,.05,95.01,0,190.02-.01,285.04,.01,22.2,0,38,15.15,38.03,36.92,.11,79.18,.12,158.35-.12,237.53-.02,5.53-1.37,11.51-3.74,16.49-6.81,14.3-18.99,20.45-34.57,20.45-110.58-.01-221.16,0-331.74,0-.93,0-1.86,.02-2.79-.02-11.52-.51-21.02-4.98-28.26-14.14C3.36,292.02,1.52,285.86,0,279.51ZM41.19,24.21c54.96,54.48,109.32,108.38,163.26,161.84,54.2-54.17,108.12-108.07,161.92-161.84H41.19Zm116.41,148.19c-38.94,38.94-77.06,77.05-114.83,114.82H366.15c-37.7-37.71-75.64-75.65-114.04-114.06-.6,.73-1.42,1.95-2.44,2.98-11.65,11.68-23.29,23.36-35.01,34.98-6.13,6.08-12.69,6.05-18.91,.06-2.68-2.59-5.33-5.21-7.93-7.87-10.23-10.44-20.44-20.9-30.22-30.91ZM24.28,41.14v228.47c38.27-38.25,76.36-76.34,114.72-114.69C101.01,117.24,62.88,79.43,24.28,41.14Zm247.03,114.2c37.84,37.84,75.75,75.75,113.26,113.25V42.09c-37.95,37.95-75.82,75.82-113.26,113.26Z"/></g></svg>