<?xml version="1.0" encoding="UTF-8"?><svg id="Layer_2" xmlns="http://www.w3.org/2000/svg" viewBox="0 0 356.94 313.26"><defs><style>.cls-1{fill:#c5db60;}</style></defs><g id="Layer_1-2"><g><path class="cls-1" d="M152.34,313.21c-39.14,0-78.29,0-117.43,0C14.75,313.21-.02,298.17,0,277.96c.06-58.28,.02-116.56,.03-174.84,0-13.38,5.04-24.3,16.09-32.12,5.34-3.78,11.38-5.65,17.95-5.69,3.41-.02,6.82-.12,10.22,.04,1.97,.09,2.47-.65,2.68-2.49,1.28-11.1,2.53-22.22,4.1-33.28C53.65,11.41,71.09-1.86,89.29,.21c37.75,4.29,75.5,8.53,113.25,12.82,37.57,4.27,75.14,8.57,112.72,12.86,4.08,.47,8.2,.71,12.22,1.48,19.39,3.7,31.55,21.17,29.17,41.18-3.09,25.93-5.91,51.89-8.86,77.84-3.23,28.46-6.48,56.93-9.73,85.39-.46,4.08-.67,8.21-1.49,12.22-2.97,14.5-11.55,23.97-25.95,27.83-2.01,.54-2.67,1.32-2.53,3.35,1.68,22.89-18.35,38.17-38.32,38.08-39.14-.18-78.29-.05-117.43-.05h0ZM19.79,222.3c1.16-.8,1.88-1.26,2.57-1.76,16.89-12.27,33.76-24.56,50.65-36.82,17.63-12.81,36.86-11.86,53.11,2.54,14.78,13.09,29.6,26.14,44.42,39.18,7.38,6.49,16.47,7.43,24.97,2.48,30.27-17.6,60.51-35.25,90.78-52.84,1.46-.85,2.08-1.74,2.07-3.48-.06-22.63,0-45.26-.05-67.89-.02-10.64-7.94-18.58-18.57-18.59-78.2-.02-156.4,0-234.6-.03-5.63,0-9.66,2.52-12.52,7.18-2.12,3.45-2.84,7.26-2.84,11.28,.02,38.53,0,77.06,.01,115.6,0,.86,0,1.72,0,3.15Zm268.54-25.05c-1.2,.62-1.97,.98-2.7,1.4-26.68,15.43-53.35,30.88-80.04,46.31-16,9.25-34.73,7.36-48.66-4.88-15.42-13.56-30.8-27.16-46.24-40.68-7.19-6.29-16.77-6.73-24.37-1.16-21.62,15.86-43.22,31.75-64.77,47.71-.92,.68-1.67,2.24-1.69,3.4-.14,9.61-.08,19.22-.08,28.83,0,9.2,6.03,15.21,15.3,15.21,77.85,0,155.7,0,233.56,0,.96,0,1.92,.03,2.88-.02,10.3-.5,16.81-7.29,16.81-17.48,0-25.16,0-50.33,0-75.49,0-.92,0-1.83,0-3.14Zm19.8,54.58c4.7-2.25,7.42-5.41,8.31-10,.4-2.05,.46-4.16,.7-6.24,2.73-23.51,5.46-47.01,8.19-70.52,2.71-23.42,5.42-46.84,8.12-70.26,1.18-10.24,2.51-20.46,3.47-30.71,.83-8.92-5.07-15.99-13.93-17.25-2.51-.36-5.03-.62-7.54-.91-21.77-2.51-43.55-5.01-65.32-7.53-23.42-2.71-46.84-5.44-70.26-8.15-22.12-2.56-44.24-5.11-66.36-7.67-8.33-.96-16.64-2.09-24.99-2.83-10.45-.92-17.52,5.13-18.6,15.46-.56,5.38-1.26,10.75-1.88,16.13-.52,4.56-1.01,9.13-1.54,13.95,1.46,0,2.58,0,3.7,0,66.22,0,132.44,0,198.67,0,22.65,0,39.24,16.59,39.24,39.18,0,47.53,0,95.05,0,142.58v4.77Z"/><path class="cls-1" d="M180.73,184.47c-20.77-.04-37.41-16.74-37.38-37.52,.03-20.66,16.91-37.45,37.59-37.38,20.6,.07,37.43,17.08,37.31,37.72-.12,20.55-16.94,37.22-37.52,37.18Zm-17.55-37.36c.03,9.8,7.92,17.61,17.72,17.54,9.75-.07,17.59-8.04,17.52-17.8-.07-9.55-8.09-17.48-17.65-17.47-9.73,.01-17.62,7.95-17.59,17.72Z"/></g></g></svg>