<?xml version="1.0" encoding="UTF-8"?><svg id="Layer_2" xmlns="http://www.w3.org/2000/svg" viewBox="0 0 66.1 64.46"><defs><style>.cls-1{fill:#fff;fill-rule:evenodd;}</style></defs><g id="Layer_1-2"><path class="cls-1" d="M33.05,0C14.8,0,0,14.8,0,33.05c0,14.6,9.47,26.99,22.6,31.36,1.65,.3,2.26-.72,2.26-1.59,0-.78-.03-2.86-.04-5.62-9.19,2-11.13-4.43-11.13-4.43-1.5-3.82-3.67-4.83-3.67-4.83-3-2.05,.23-2.01,.23-2.01,3.32,.23,5.06,3.41,5.06,3.41,2.95,5.05,7.73,3.59,9.62,2.75,.3-2.14,1.15-3.59,2.1-4.42-7.34-.83-15.05-3.67-15.05-16.33,0-3.61,1.29-6.56,3.4-8.87-.34-.84-1.47-4.2,.32-8.75,0,0,2.77-.89,9.09,3.39,2.64-.73,5.46-1.1,8.27-1.11,2.81,.01,5.63,.38,8.27,1.11,6.31-4.28,9.08-3.39,9.08-3.39,1.8,4.55,.67,7.91,.33,8.75,2.12,2.31,3.4,5.26,3.4,8.87,0,12.7-7.73,15.49-15.09,16.31,1.19,1.02,2.24,3.04,2.24,6.12,0,4.42-.04,7.98-.04,9.07,0,.88,.6,1.91,2.27,1.59,13.12-4.38,22.58-16.76,22.58-31.35C66.1,14.8,51.3,0,33.05,0Z"/></g></svg>