<?xml version="1.0" encoding="UTF-8"?><svg id="Layer_2" xmlns="http://www.w3.org/2000/svg" viewBox="0 0 720 720"><defs><style>.cls-1{fill:#fff;}</style></defs><g id="Layer_1-2"><g><path class="cls-1" d="M258.86,300.3c-19.91,.15-39.82,.07-59.73,.07q-6.32,0-6.32,6.15c0,35.83,0,71.66,0,107.49,0,35.98,.07,71.95-.09,107.93-.02,4.35,1.4,5.5,5.56,5.47,20.2-.17,40.41-.14,60.61-.02,3.89,.02,5.4-1.03,5.39-5.25-.12-72.25-.12-144.49,0-216.74,0-4.28-1.56-5.12-5.42-5.09Z"/><path class="cls-1" d="M527.26,401.89c.04-16.39-.82-32.68-4.58-48.68-4.44-18.91-12.72-35.49-29.73-46.38-10.51-6.73-22.25-9.98-34.51-11.32-15.01-1.63-29.92-1.8-44.4,3.74-15.98,6.12-28.45,16.41-38.3,32,0-9.48-.18-17.59,.07-25.68,.12-3.99-1.06-5.35-5.22-5.3-19.32,.21-38.65,.24-57.98-.02-4.65-.06-5.62,1.51-5.61,5.82,.12,71.83,.12,143.66,0,215.49,0,4.44,1.22,5.89,5.72,5.84,20.06-.2,40.13-.21,60.19,0,4.53,.05,5.68-1.41,5.66-5.83-.17-36.13-.2-72.27-.02-108.41,.04-7.47,.52-15.05,1.83-22.39,2.72-15.28,9.72-27.65,26.08-31.73,4.92-1.23,10.2-1.48,15.3-1.42,17.06,.21,27.46,8.08,31.24,24.84,2.02,8.95,2.8,18.34,2.87,27.54,.31,37.17,.19,74.33,.05,111.5-.02,4.35,1.18,5.95,5.74,5.91,20.06-.21,40.13-.19,60.19,0,4.32,.04,5.44-1.41,5.43-5.6-.13-39.97-.13-79.94-.02-119.91Z"/><path class="cls-1" d="M228.71,187.96c-23.03-.02-41.25,18.11-41.25,41.08,0,22.83,18.06,41,40.8,41.02,22.89,.02,41.27-18.03,41.32-40.56,.04-23-18.17-41.51-40.86-41.54Z"/><path class="cls-1" d="M360,0C161.18,0,0,161.18,0,360s161.18,360,360,360,360-161.18,360-360S558.82,0,360,0Zm236.5,562.11c0,19.12-14.54,33.95-33.77,34.08-25.23,.17-50.46,.05-75.69,.05-42.49,0-84.99,0-127.48,0-66.84,0-133.68-.23-200.52,.15-17.74,.1-32.75-12.26-35.18-29.02-.25-1.74-.35-3.51-.35-5.27-.02-134.68-.02-269.35-.01-404.03,0-19.42,14.49-34.15,34.01-34.3,21.39-.16,42.79-.04,64.18-.04,113.17,0,226.34,.12,339.51-.12,18.31-.04,30.74,12.44,33.77,24.06,.84,3.24,1.47,6.64,1.47,9.97,.07,134.82,.07,269.65,.06,404.47Z"/></g></g></svg>