<?xml version="1.0" encoding="UTF-8"?><svg id="Layer_2" xmlns="http://www.w3.org/2000/svg" viewBox="0 0 288 288"><defs><style>.cls-1{fill:#fff;}</style></defs><g id="Layer_1-2"><path class="cls-1" d="m144,0C64.47,0,0,64.47,0,144s64.47,144,144,144,144-64.47,144-144S223.53,0,144,0Zm-43.08,199.99c-30.68,0-55.48-25.17-55.46-56.29.02-30.83,25.07-55.73,56.04-55.7,30.39.03,55.22,25.23,55.22,56.05,0,30.95-24.93,55.94-55.8,55.94Zm110.57-22.78c-2.04,4.81-4.63,9.29-8.28,13.08-2.99,3.1-6.44,5.45-10.77,6.19-4.87.83-9.14-.65-12.97-3.59-4.23-3.25-7.18-7.54-9.57-12.23-3.54-6.93-5.56-14.33-6.74-21.98-.81-5.2-1.18-10.44-1.1-15.7.19-11.38,1.93-22.47,6.57-32.97,2.33-5.28,5.3-10.15,9.72-13.98,3.41-2.96,7.26-4.82,11.9-4.72,4.12.09,7.61,1.75,10.72,4.32,4.49,3.71,7.5,8.52,9.9,13.74,3.12,6.76,5.01,13.89,5.91,21.26.54,4.46.79,8.95,1.17,13.42-.32,11.44-1.96,22.57-6.45,33.16Zm29.09-4.14c-.73,4.53-1.61,9.04-3.41,13.3-.52,1.23-1.19,2.44-2.01,3.5-1.41,1.83-3.12,1.87-4.56.06-.87-1.09-1.56-2.37-2.1-3.66-1.8-4.26-2.66-8.77-3.39-13.31-1.29-8.02-1.84-16.11-2-24.23-.23-12.04.28-24.02,2.38-35.9.78-4.4,1.7-8.77,3.79-12.79.48-.93,1.15-1.81,1.89-2.56.99-.99,2.29-1.02,3.3-.05.77.75,1.45,1.66,1.96,2.62,1.91,3.63,2.8,7.59,3.56,11.58,1.57,8.2,2.29,16.5,2.5,24.84.06,2.51,0,5.03,0,7.55.1,9.73-.38,19.43-1.93,29.05Z"/></g></svg>