<?xml version="1.0" encoding="UTF-8"?><svg id="Layer_2" xmlns="http://www.w3.org/2000/svg" xmlns:xlink="http://www.w3.org/1999/xlink" viewBox="0 0 1198.39 618.98"><defs><style>.cls-1{stroke-width:14.68px;}.cls-1,.cls-2{fill:#fff;stroke:#000;}.cls-1,.cls-2,.cls-3,.cls-4,.cls-5{stroke-miterlimit:10;}.cls-2{stroke-width:15.1px;}.cls-3{fill:url(#linear-gradient);}.cls-3,.cls-4,.cls-5{stroke:#fff;}.cls-3,.cls-5{stroke-width:19px;}.cls-4{stroke-width:18.98px;}.cls-4,.cls-5{fill:none;}</style><linearGradient id="linear-gradient" x1="16.6" y1="309.49" x2="1167.47" y2="309.49" gradientTransform="matrix(1, 0, 0, 1, 0, 0)" gradientUnits="userSpaceOnUse"><stop offset="0" stop-color="#fff"/><stop offset=".5" stop-color="#000"/></linearGradient></defs><g id="Layer_1-2"><g><line class="cls-5" x1="19.91" y1="84.49" x2="1170.77" y2="84.49"/><line class="cls-5" x1="26.51" y1="234.49" x2="1177.38" y2="234.49"/><line class="cls-5" x1="26.51" y1="159.49" x2="1177.38" y2="159.49"/><line class="cls-5" x1="16.6" y1="384.49" x2="1167.47" y2="384.49"/><line class="cls-5" x1="23.21" y1="534.49" x2="1174.07" y2="534.49"/><line class="cls-5" x1="23.21" y1="459.49" x2="1174.07" y2="459.49"/><line class="cls-3" x1="16.6" y1="309.49" x2="1167.47" y2="309.49"/><polygon class="cls-4" points="1014.67 9.49 709.07 9.49 556.27 309.49 709.07 609.49 1014.67 609.49 1167.47 309.49 1014.67 9.49"/><polygon class="cls-4" points="469.05 9.49 163.45 9.49 10.65 309.49 163.45 609.49 469.05 609.49 621.85 309.49 469.05 9.49"/></g><path class="cls-1" d="M1185.99,112.45l-201.56,367.58c-13.48,24.32-34.07,36.47-61.78,36.47h-35.59v-255.3l-140.07,219.98c-15,23.55-37.11,35.32-66.33,35.32h-40.43l29.89-331.69h-132.38l43.84-72.37h125.83c15.37,0,28.56,3.54,39.57,10.63,14.8,9.76,22.21,24.98,22.21,45.66,0,3.06-.19,6.22-.57,9.48l-20.5,194.7,135.8-217.39c9.68-15.51,18.31-26.03,25.91-31.59,10.63-7.66,25.15-11.49,43.56-11.49h27.9v254.72l136.65-254.72h68.04Z"/><path class="cls-2" d="M556.27,239.9c0,35.9-12.46,73.86-37.37,113.88-32.96,52.77-80.83,93.68-143.6,122.71-57.87,26.68-120.06,40.02-186.56,40.02H91.62L198.15,214.59h106.23l-90.34,254.83c38.65,0,76.95-11.87,114.91-35.61,37.96-23.73,65.67-53.06,83.13-87.99,15.69-30.8,23.54-56.5,23.54-77.1,0-33.74-9.42-57.97-28.25-72.68-16.87-12.95-42.77-19.42-77.69-19.42H45.13l45.32-74.15H375.29c49.24,0,90.24,10.4,123,31.19,38.65,24.53,57.97,59.93,57.97,106.23Z"/></g></svg>