<?xml version="1.0" encoding="UTF-8"?><svg id="Layer_2" xmlns="http://www.w3.org/2000/svg" viewBox="0 0 383.11 383.42"><defs><style>.cls-1{fill:#c5db60;}</style></defs><g id="Layer_1-2"><path class="cls-1" d="M300.64,344.48c-8.18,0-14.05-2.36-18.94-7.08-3.47-3.35-6.76-6.89-10.3-10.16-7.25-6.7-15.6-8.75-24.85-4.88-9.32,3.9-14.24,11.13-14.59,21.28-.18,5.32,.1,10.65-.17,15.96-.69,13.68-10.9,23.53-24.6,23.72-9.81,.13-19.62,.13-29.44,0-13.98-.18-24.48-10.58-24.92-24.6-.16-5.15,.07-10.31-.07-15.46-.28-10.03-5.32-17.01-14.39-20.83-9.17-3.86-17.58-2.12-24.82,4.76-3.25,3.09-6.34,6.36-9.58,9.47-10.88,10.48-25.85,10.49-36.57-.02-7.01-6.87-13.97-13.78-20.85-20.78-10.56-10.74-10.46-25.17,.16-35.98,3.03-3.08,6.17-6.06,9.2-9.15,7.11-7.24,9.24-15.74,5.3-25.15-3.98-9.49-11.39-14.38-21.83-14.44-5.65-.04-11.33,.14-16.94-.38C9.49,229.56,.21,219.33,.07,206.39c-.1-9.81-.1-19.62,0-29.44,.13-13.17,9.66-23.49,22.8-24.46,5.46-.4,10.97-.13,16.45-.23,10.56-.2,18.21-5.09,22.08-14.9,3.82-9.69,1.29-18.23-6.1-25.44-3.09-3.02-6.16-6.07-9.16-9.18-9.86-10.2-9.96-24.75-.02-34.89,7.33-7.48,14.81-14.83,22.46-21.98,10.18-9.52,25.04-9.24,35.11,.43,3.48,3.34,6.76,6.89,10.3,10.16,7.15,6.58,15.42,8.36,24.44,4.58,9.08-3.8,14.21-10.69,14.49-20.75,.13-4.82-.05-9.65,.06-14.47C153.34,10.3,163.77,.08,179.29,.04c9.31-.03,18.63-.08,27.94,.01,12.82,.12,23.02,8.94,24.54,21.66,.69,5.75,.48,11.61,.48,17.43,0,10.46,4.9,17.76,14.31,21.93,9.15,4.06,18.29,1.93,25.97-5.65,3.19-3.16,6.28-6.43,9.56-9.49,9.99-9.33,24.88-9.4,34.75,0,7.59,7.22,15.02,14.61,22.31,22.14,9.91,10.23,9.79,24.58-.14,34.88-3.46,3.59-7.17,6.94-10.63,10.53-6.38,6.62-8.01,14.49-5.02,23.03,3.11,8.89,9.47,14.43,18.99,15.41,5.6,.58,11.29,.28,16.94,.4,13.17,.26,22.41,8.04,23.25,21.14,.78,12.08,.77,24.29-.04,36.37-.87,13.02-10.06,20.92-23.19,21.4-4.98,.18-9.98-.04-14.97,.09-10.04,.28-17.05,5.34-20.79,14.44-3.79,9.2-1.92,17.6,5.15,24.71,3.4,3.42,6.96,6.68,10.29,10.17,9.61,10.1,9.73,24.57,.11,34.58-7.26,7.55-14.76,14.87-22.24,22.21-4.85,4.75-10.78,7.04-16.21,7.07Zm-108.4-72.98c44.13,.07,80.08-35.7,80.14-79.75,.06-43.85-35.63-79.76-79.44-79.93-44.28-.18-80.09,35.31-80.22,79.48-.13,44.3,35.4,80.13,79.52,80.2Z"/></g></svg>