<?xml version="1.0" encoding="UTF-8"?><svg id="Layer_2" xmlns="http://www.w3.org/2000/svg" viewBox="0 0 659.48 659.48"><defs><style>.cls-1{fill:#fff;}</style></defs><g id="Layer_1-2"><g><path class="cls-1" d="M451.43,203.83c-12.84-36.95-56.09-84.37-79.02-87.31,14.46,30.48,20.33,63.33,26.18,96.8,18.04-3.24,35.13-6.31,52.84-9.49Z"/><path class="cls-1" d="M269.76,430.37c-1.7-28.75-3.37-57.18-5.08-86.12h-70.47c.73,33.45,6.19,65.6,17.25,96.81,19.98-3.66,39.24-7.2,58.3-10.69Z"/><path class="cls-1" d="M376.43,215.33c-1.66-9.39-2.94-17.59-4.57-25.71-4.62-23.04-9.99-45.88-21.31-66.74-3.46-6.37-7.15-15.84-14.95-14.48-5.53,.96-11.11,8.63-14.36,14.56-15.5,28.34-20.51,59.77-26.09,92.37h81.28Z"/><path class="cls-1" d="M273.16,213.37c5.56-34.17,11.89-66.63,26.75-98.69-39.99,19.03-62.41,51.11-80.42,89.01,18.2,3.28,35.48,6.4,53.67,9.68Z"/><path class="cls-1" d="M464.55,238.09q-4.2-14.02-18.74-10.91c-.45,.1-.92,.16-1.37,.25-14.31,2.6-28.62,5.2-42.65,7.74,1.74,28.99,3.45,57.61,5.18,86.46h70.18c.13-1.96,.36-3.32,.3-4.65-1.31-26.78-5.17-53.15-12.89-78.89Z"/><path class="cls-1" d="M499.73,321.48h59.84c.39-.79,.77-1.21,.75-1.6-1.85-41.46-15.2-79.06-38.26-113.34-.73-1.09-3.22-2.05-4.38-1.63-11.97,4.28-23.84,8.86-36.23,13.55,11.45,33.49,16.96,67.92,18.28,103.03Z"/><path class="cls-1" d="M291.65,237.83c-1.62,27.75-3.24,55.58-4.87,83.6h98.13c-1.71-28.39-3.39-56.23-5.04-83.6h-88.22Z"/><path class="cls-1" d="M211.34,224.52c-10.77,31.54-16.44,63.52-17.17,96.93h70.51c1.71-29.2,3.38-57.81,5.05-86.25-19.6-3.59-38.85-7.11-58.39-10.68Z"/><path class="cls-1" d="M475.18,196.5c10.16-3.3,20.25-6.84,31.17-10.61-22.22-25.25-47.12-44.03-76.47-57.02,17.71,19.65,31.33,41.8,42.26,65.69,.44,.95,2.29,2.18,3.04,1.93Z"/><path class="cls-1" d="M219.46,461.86c18.06,37.89,40.37,69.97,79.03,87.56-13.62-30.76-19.73-63.28-25.38-97.13-17.87,3.19-35.12,6.26-53.66,9.57Z"/><path class="cls-1" d="M295.19,450.12c5.14,31.23,10.36,60.75,23.57,88.06,2.79,5.77,6.73,11.09,10.7,16.17,3.68,4.71,8.49,5.05,12.37,.24,3.9-4.84,8.36-9.79,10.4-15.47,6.58-18.3,12.63-36.82,17.95-55.53,3-10.54,4.16-21.6,6.34-33.48h-81.33Z"/><path class="cls-1" d="M509.13,549.02c-13.11,25.12-25.29,48.46-38.31,73.42-25.7-78.43-50.89-155.28-76.61-233.76,78.24,25.63,155.14,50.82,233.76,76.57-24.04,12.55-46.72,24.39-69.4,36.24,10.44,10.4,20.82,20.75,31.18,31.07,43.7-55.94,69.74-126.33,69.74-202.81C659.48,147.63,511.85,0,329.74,0S0,147.63,0,329.74s147.63,329.74,329.74,329.74c80.83,0,154.86-29.1,212.21-77.38-10.81-10.9-21.75-21.93-32.82-33.09Zm-368.17-64.03c-74.81-95.4-69.01-230.75,13.39-320.11,81.66-88.56,216.53-105.38,316.89-38.95,106.48,70.48,131.96,196.21,97.07,289.91-6.46-2.07-12.96-4.16-20.16-6.47,6.25-21.39,11.98-42.58,12.28-65.2h-60.22c-1.52,15.59-3.04,31.17-4.66,47.82-8.01-2.6-14.57-4.73-21.05-6.84,1.13-13.85,2.22-27.16,3.37-41.14h-71.24c-.38,6.08-.75,11.96-1.15,18.42-6.41-2.04-12.25-3.6-17.81-5.84-1.57-.63-2.85-3.1-3.35-4.97-.57-2.15-.13-4.57-.13-7.39h-97.37c1.58,27.79,3.16,55.47,4.76,83.62,5.79,0,10.55-.02,15.31,0,21.84,.11,43.68,.3,65.52,.29,3.93,0,5.62,1.55,6.77,5.28,4.27,13.75,9.03,27.35,13.35,41.1,.78,2.5,.99,5.57,.33,8.07-5.94,22.35-12.14,44.64-18.17,66.62,12.01-4.65,23.26-13.63,34.6-23.7,4.37,13.34,8.48,25.88,12.58,38.39-80.25,33.11-203.59,19.66-280.89-78.92Z"/><path class="cls-1" d="M190.1,218.31c-13.09-4.81-25.48-9.37-38.95-14.32-24.42,35.32-37.89,74.21-40.22,117.45h60.98c1.17-35.49,6.98-69.83,18.19-103.13Z"/><path class="cls-1" d="M239.04,129.48c-27.61,13.1-52.14,31.65-73.74,56.46,11.63,4.08,22.15,7.76,30.75,10.77,14.98-23.43,29.09-45.5,42.99-67.23Z"/><path class="cls-1" d="M171.95,344.12h-61.05c2.44,43.47,15.88,82.48,40.29,117.51,13.4-4.96,25.96-9.61,39-14.44-11.63-33.33-16.66-67.47-18.24-103.07Z"/><path class="cls-1" d="M165.37,479.74c22.01,25.21,46.9,43.91,76.19,56.84-18.29-20.22-32.02-43.19-43.44-68.53-10.89,3.89-21.37,7.63-32.75,11.69Z"/></g></g></svg>