<?xml version="1.0" encoding="UTF-8"?><svg id="Layer_2" xmlns="http://www.w3.org/2000/svg" viewBox="0 0 717.36 717.36"><defs><style>.cls-1{fill:#fff;}</style></defs><g id="Layer_1-2"><g><path class="cls-1" d="M526.35,547.82c-3.55,5.8-2.02,16.01-2.41,24.23h13.9c-.32-9.21,2.61-32.56-11.49-24.23Z"/><path class="cls-1" d="M465.85,548.78c-6.23,1.69-2.27,49.15-3.3,53.55,.83,1.47,1.9,2.57,3.24,3.3,13.57,5.37,12.12-12.54,12.46-22.99-1-9.59,4.35-44.85-12.39-33.86Z"/><path class="cls-1" d="M242.13,550.28c-2.74,6.48-1.2,31.58-1.58,39.58-1.26,10.46,4.5,25.53,12.6,13.49,2.74-6.42,1.2-31.77,1.58-39.78,1.35-10.17-4.83-25.4-12.6-13.28Z"/><path class="cls-1" d="M358.68,0C160.59,0,0,160.59,0,358.68s160.59,358.68,358.68,358.68,358.68-160.59,358.68-358.68S556.77,0,358.68,0ZM204.89,619.18h-19.13v-38.41l-22.3-77.23h19c2.52,11.73,9.63,44.15,12.11,55.34h.69c2.37-10.66,10.31-44.2,12.94-55.34h18.72l-22.03,77.23v38.41Zm26.91-2.62c-12.87-9.36-10.06-30.08-10.53-45.84-2.15-28.47,15.32-46.81,41.71-33.86,12.91,9.43,10.55,30.21,10.87,46.12,2.07,29.56-15,46.16-42.06,33.59Zm103.04,2.56h-14.87l-1.65-10.32h-.41c-4.87,12.28-22.43,15.95-30.22,6.26-7.89-9.15-2.61-68.26-4.06-80.32h19c2.06,5.64-5.33,75.05,5.37,72.41,3.47,.02,6.53-2.55,7.85-5.78v-66.63h19v84.39Zm33.31,0h-19.27v-100.08h-18.45v-15.42h56.16v15.42h-18.45v100.08Zm64.66,0h-14.87l-1.65-10.32h-.41c-4.87,12.28-22.42,15.95-30.22,6.26-7.89-9.15-2.61-68.26-4.06-80.32h19c2.06,5.64-5.33,75.05,5.37,72.41,3.48,.02,6.53-2.55,7.85-5.78v-66.63h19v84.39Zm60.02-7.64c-5.58,12.71-24.83,11.02-30.56-.34h-.41l-1.93,7.98h-15.28v-119.76h17.9v44.46h.14c7.25-15.13,31.17-14.44,32.97,4.4,2.4,15.31,3.79,49.99-2.82,63.25Zm33.59-5.78c8.45,6.14,12.99-3.09,12.25-12.46l16.38,.96c5.07,25.81-31.12,35.2-44.05,17.48-8.14-12.25-8.16-57.73,.21-69.72,5.1-9.75,26.4-11.21,35.03-5.16,12.51,9.4,8.78,31.05,9.5,46.53h-31.8c.36,8.02-1.02,16.84,2.48,22.37Zm12.83-143.31c-146.12,14.58-215.01,14.52-361.14-.01-59.9-5.6-47.54-140.11-50.52-152.1,1.97-11.98-8.66-146.52,50.52-152.11,36.04-9.66,180.57-9.66,180.57-9.66,17.26,7.11,210.33-21.74,221.43,50.53,9.66,36.04,9.66,111.24,9.66,111.24-1.97,11.98,8.66,146.52-50.52,152.12Z"/><polygon class="cls-1" points="312.46 379.6 432.53 310.27 312.46 240.95 312.46 379.6"/></g></g></svg>